<?xml version="1.0" encoding="UTF-8"?> <svg xmlns="http://www.w3.org/2000/svg" width="413.125" height="512" viewBox="0 0 413.125 512"><g id="Group_166164" data-name="Group 166164" transform="translate(-4602.466 3050)"><path id="Path_152148" data-name="Path 152148" d="M226.4,512c-5.85-.47-11.69-1.06-17.54-1.39-34.9-2-69.64-5.37-103.68-13.57-14.19-3.42-28-8.42-42-12.65-3.91-1.18-6-3.54-6.91-7.66-7.38-32-9-64.16-3.66-96.61,2.89-17.43,8.32-34,17.8-49A86,86,0,0,1,115.74,295c24.45-8.61,48.28-18.47,69.79-33.22,4.28-2.93,8.36-6.15,13.06-9.62,38,37.32,76.62,37.43,114.84-.18a180.469,180.469,0,0,0,42.42,26.58c12.44,5.64,25.07,11,38,15.49,28.55,10,47.35,29.56,57.8,57.57,12,32.12,12.85,65.27,8.64,98.79-1.07,8.53-3.15,16.93-4.43,25.45-.76,5-3.65,7.3-8.16,9a313,313,0,0,1-66.2,17.23c-20.7,3.05-41.55,5.17-62.37,7.35-9.79,1-19.67,1.24-29.5,1.86a36.913,36.913,0,0,0-4,.69H226.4Z" transform="translate(4553 -3050)"></path><path id="Path_152149" data-name="Path 152149" d="M262.53,0a111.231,111.231,0,0,1,21.61,5,114.25,114.25,0,0,1,43.21,27.13c6.35,6.36,11.37,11.49,15.07,20.1,4.5,10.46,4.41,19.94,4.31,25.09-.17,8.87-3,32.68-3.65,39.19-.3,2.82-.26,5,2.31,6.76,4.62,3.16,4.88,8.08,4.42,12.91a84.369,84.369,0,0,1-10.07,33.51c-3.24,5.84-4.19,12.92-6.45,19.35-6.75,19.24-18.07,49.66-45.34,63.66a73,73,0,0,1-32,7.55c-6.17,0-18.49,0-31.37-7.1-6-3.29-9.56-6.8-14.53-11.46A117.51,117.51,0,0,1,182.9,202.6c-3.94-9-6.41-18.56-9.78-27.79-1.21-3.31-3.12-6.36-4.67-9.54a71.68,71.68,0,0,1-7.71-32.81c.05-3.6,1-6.76,4.07-9,2.67-1.91,2.94-4.34,2.39-7.49A208.941,208.941,0,0,1,164,70.65c.8-17.78,11-31,16.7-38.32a86.42,86.42,0,0,1,32.57-24.8A87.47,87.47,0,0,1,236.4,1Z" transform="translate(4553 -3050)"></path></g></svg> 