<?xml version="1.0" encoding="UTF-8"?> <svg xmlns="http://www.w3.org/2000/svg" xmlns:xlink="http://www.w3.org/1999/xlink" width="1201.388" height="282.541" viewBox="0 0 1201.388 282.541"><defs><clipPath id="clip-path"><path id="Path_172975" data-name="Path 172975" d="M273.723,124.922l-12.2-29.366L188.243,65.3l42.916,103.269Z" transform="translate(-188.243 -65.302)" fill="#88fca8"></path></clipPath><clipPath id="clip-path-2"><path id="Path_172977" data-name="Path 172977" d="M845.872,486.356l12.2,29.366,73.276,30.254L888.436,442.707Z" transform="translate(-845.872 -442.707)" fill="#88fca8"></path></clipPath></defs><g id="Group_186580" data-name="Group 186580" transform="translate(-152.612 -2444.398)"><path id="Path_172984" data-name="Path 172984" d="M77.019,313.722a56.012,56.012,0,0,1-23.506-4.643,38.44,38.44,0,0,1-15.961-12.962,34.042,34.042,0,0,1-6.191-18.573H45.677a27.2,27.2,0,0,0,8.706,17.315q7.739,7.449,22.636,7.449,13.736,0,21.765-7.062a22.8,22.8,0,0,0,8.029-17.9q0-8.706-4.45-14.026a27.239,27.239,0,0,0-11.028-7.932,171.092,171.092,0,0,0-18.186-5.707,159,159,0,0,1-21.475-7.158,34.181,34.181,0,0,1-13.543-10.834q-5.611-7.352-5.611-19.927a33.172,33.172,0,0,1,5.417-18.67,36.287,36.287,0,0,1,15.284-12.866,52.579,52.579,0,0,1,22.636-4.643q18.766,0,30.278,9.19a34.531,34.531,0,0,1,13.253,23.7h-14.7q-1.354-8.319-9.093-14.8T74.7,187.194q-12.189,0-20.314,6.481t-8.126,17.7q0,8.513,4.45,13.736a28.362,28.362,0,0,0,11.124,7.932,164.788,164.788,0,0,0,18.089,5.8,163.36,163.36,0,0,1,21.281,7.255,34.665,34.665,0,0,1,13.736,10.931q5.611,7.352,5.611,19.734a34.82,34.82,0,0,1-5.03,17.993,36.714,36.714,0,0,1-14.9,13.736Q90.755,313.722,77.019,313.722ZM191.165,204.8a45.678,45.678,0,0,1,21.572,5.03,35.847,35.847,0,0,1,15.091,15.381q5.514,10.351,5.514,25.248v61.91H219.992V252.006q0-17.219-8.609-26.312T187.876,216.6q-15.284,0-24.377,9.673t-9.093,28.44v57.654H140.863V169.2h13.543v55.525a35.009,35.009,0,0,1,14.8-14.7A45.831,45.831,0,0,1,191.165,204.8ZM264.3,186.807a9.5,9.5,0,0,1-6.965-2.9,9.726,9.726,0,0,1-2.9-7.158,9.409,9.409,0,0,1,2.9-7.062,10.049,10.049,0,0,1,13.93,0,9.409,9.409,0,0,1,2.9,7.062,9.726,9.726,0,0,1-2.9,7.158A9.5,9.5,0,0,1,264.3,186.807Zm6.771,19.927V312.368H257.524V206.734Zm38.307,23.216a42.72,42.72,0,0,1,15.961-17.7q10.931-7.062,26.021-7.062a50.543,50.543,0,0,1,25.828,6.675,46.414,46.414,0,0,1,17.993,18.96q6.481,12.285,6.481,28.537t-6.481,28.633a46.923,46.923,0,0,1-17.993,19.153,49.982,49.982,0,0,1-25.828,6.771q-14.9,0-25.925-7.062a42.537,42.537,0,0,1-16.058-17.7v73.131H296.025V206.734h13.349Zm78.548,29.407q0-13.156-5.127-22.733a35.656,35.656,0,0,0-14.026-14.607,40.17,40.17,0,0,0-20.121-5.03,38.781,38.781,0,0,0-19.831,5.224,37.271,37.271,0,0,0-14.22,14.9,50.821,50.821,0,0,0,0,44.885,37.271,37.271,0,0,0,14.22,14.9,38.781,38.781,0,0,0,19.831,5.224,39.572,39.572,0,0,0,20.121-5.127,36.031,36.031,0,0,0,14.026-14.9Q387.922,272.32,387.922,259.358ZM434.354,225.5a33.1,33.1,0,0,1,13.64-15.284q9.19-5.417,22.539-5.417v14.123h-3.676q-14.7,0-23.6,7.932t-8.9,26.505v59.008H420.812V206.734h13.543Zm96.928,88.415a53.815,53.815,0,0,1-26.8-6.675,48.242,48.242,0,0,1-18.766-18.96q-6.868-12.285-6.868-28.73t6.965-28.73a48.714,48.714,0,0,1,18.96-18.96,57.706,57.706,0,0,1,53.881,0,47.879,47.879,0,0,1,18.96,18.96q6.868,12.285,6.868,28.73,0,16.251-6.965,28.633a48.182,48.182,0,0,1-19.153,19.057A55.452,55.452,0,0,1,531.282,313.916Zm0-11.8a40.517,40.517,0,0,0,19.347-4.74,36.178,36.178,0,0,0,14.413-14.317q5.514-9.577,5.514-23.506t-5.417-23.506a35.56,35.56,0,0,0-14.317-14.317,41.853,41.853,0,0,0-38.694,0,34.955,34.955,0,0,0-14.22,14.317q-5.32,9.577-5.32,23.506t5.32,23.506a35.129,35.129,0,0,0,14.123,14.317A39.956,39.956,0,0,0,531.282,302.114Zm65.973-42.563q0-16.445,6.578-28.73a46.862,46.862,0,0,1,18.186-18.96,52.21,52.21,0,0,1,26.505-6.675q19.54,0,32.212,9.673t16.348,26.312h-14.51a29.7,29.7,0,0,0-11.7-17.9q-9-6.481-22.345-6.481a38.081,38.081,0,0,0-19.153,4.837,33.916,33.916,0,0,0-13.446,14.413q-4.933,9.577-4.933,23.506t4.933,23.6a33.806,33.806,0,0,0,13.446,14.51,38.081,38.081,0,0,0,19.153,4.837q13.349,0,22.345-6.481a29.78,29.78,0,0,0,11.7-18.089h14.51a44.307,44.307,0,0,1-16.445,26.118q-12.769,9.867-32.116,9.867a52.21,52.21,0,0,1-26.505-6.675,46.862,46.862,0,0,1-18.186-18.96Q597.255,276,597.255,259.551Zm176.056,52.817-43.53-47.4v47.4H716.238V169.2H729.78v84.739l42.563-47.206H791.3L741.2,259.358l50.5,53.01Zm125.561-58.234q0,6.965-.387,10.641H810.844q.581,11.995,5.8,20.508a34.173,34.173,0,0,0,13.736,12.866,40.2,40.2,0,0,0,18.573,4.353q13.156,0,22.152-6.384a29.978,29.978,0,0,0,11.9-17.219h14.317a44.733,44.733,0,0,1-16.542,25.248q-12.672,9.77-31.826,9.77a53.276,53.276,0,0,1-26.7-6.675,47.131,47.131,0,0,1-18.476-18.96q-6.675-12.285-6.675-28.73t6.578-28.827a45.722,45.722,0,0,1,18.38-18.96,54.292,54.292,0,0,1,26.892-6.578q15.09,0,26.408,6.578a45.46,45.46,0,0,1,17.412,17.7A50.488,50.488,0,0,1,898.872,254.134Zm-13.736-.387q.194-11.8-4.74-20.121a31.989,31.989,0,0,0-13.446-12.575,40.944,40.944,0,0,0-18.573-4.256,36.9,36.9,0,0,0-25.731,9.673q-10.641,9.673-11.8,27.279Zm50.3-35.6v65.586q0,9.673,3.676,13.349t12.962,3.676h12.382v11.608h-14.51q-14.317,0-21.281-6.675T921.7,283.735V218.149H907V206.734h14.7V180.229h13.736v26.505h29.02v11.415Z" transform="translate(121.771 2288.118)" fill="#6734e0" stroke="#6734e0" stroke-width="1"></path><g id="Group_186547" data-name="Group 186547" transform="translate(1086.229 2444.398)"><g id="Group_186509" data-name="Group 186509" transform="translate(33.183 11.511)"><g id="Group_186508" data-name="Group 186508" clip-path="url(#clip-path)"><rect id="Rectangle_61838" data-name="Rectangle 61838" width="94.155" height="110.326" transform="translate(-8.966 0.784) rotate(-5)" fill="#88fca8"></rect></g></g><path id="Path_172976" data-name="Path 172976" d="M0,525.205l79.165-.96,62.869-64.479-23.372-56.249Z" transform="translate(0 -332.386)" fill="#35ed7f"></path><g id="Group_186511" data-name="Group 186511" transform="translate(149.108 78.039)"><g id="Group_186510" data-name="Group 186510" clip-path="url(#clip-path-2)"><rect id="Rectangle_61839" data-name="Rectangle 61839" width="118.398" height="128.06" transform="translate(-36.401 15.014) rotate(-22.414)" fill="#88fca8"></rect></g></g><path id="Path_172978" data-name="Path 172978" d="M855.323,0l-79.165.96L713.289,65.438l23.371,56.249Z" transform="translate(-587.552 0.001)" fill="#35ed7f"></path></g><path id="Path_173005" data-name="Path 173005" d="M468.585,35.955V49.43h18.1v8.547h-18.1V72.222H488.99V81H457.8V27.177H488.99v8.778ZM507.7,54.05a28.153,28.153,0,0,1,3.581-14.207,25.567,25.567,0,0,1,9.779-9.779,27.748,27.748,0,0,1,13.9-3.5,27.34,27.34,0,0,1,15.785,4.62,24.157,24.157,0,0,1,9.471,12.782h-12.4a12.848,12.848,0,0,0-5.2-5.775,15.253,15.253,0,0,0-7.739-1.925,15.92,15.92,0,0,0-8.354,2.194,14.976,14.976,0,0,0-5.7,6.2,20.434,20.434,0,0,0-2.04,9.394,20.5,20.5,0,0,0,2.04,9.355,14.925,14.925,0,0,0,5.7,6.237,15.92,15.92,0,0,0,8.354,2.194,15.017,15.017,0,0,0,7.739-1.964,13.082,13.082,0,0,0,5.2-5.813h12.4a24.026,24.026,0,0,1-9.432,12.821,27.457,27.457,0,0,1-15.823,4.581,27.748,27.748,0,0,1-13.9-3.5,25.644,25.644,0,0,1-9.779-9.74A27.942,27.942,0,0,1,507.7,54.05Zm98.252,27.489A27.847,27.847,0,0,1,592.093,78a26.444,26.444,0,0,1-10.01-9.818,27.463,27.463,0,0,1-3.7-14.206,27.316,27.316,0,0,1,3.7-14.13,26.444,26.444,0,0,1,10.01-9.817,28.964,28.964,0,0,1,27.758,0,26.243,26.243,0,0,1,9.933,9.817,27.539,27.539,0,0,1,3.657,14.13,27.688,27.688,0,0,1-3.657,14.206A26.163,26.163,0,0,1,619.813,78,27.846,27.846,0,0,1,605.953,81.539Zm0-9.625a16.421,16.421,0,0,0,8.547-2.195,15.043,15.043,0,0,0,5.775-6.275,20.592,20.592,0,0,0,2.079-9.471,20.355,20.355,0,0,0-2.079-9.432,14.839,14.839,0,0,0-5.775-6.2,16.65,16.65,0,0,0-8.547-2.156,16.86,16.86,0,0,0-8.586,2.156,14.764,14.764,0,0,0-5.813,6.2,20.355,20.355,0,0,0-2.079,9.432,20.592,20.592,0,0,0,2.079,9.471,14.965,14.965,0,0,0,5.813,6.275A16.628,16.628,0,0,0,605.953,71.914ZM698.969,81h-10.78L663.78,44.117V81H653V27.177h10.78l24.409,36.96V27.177h10.78Zm47.124.539A27.847,27.847,0,0,1,732.233,78a26.444,26.444,0,0,1-10.01-9.818,27.463,27.463,0,0,1-3.7-14.206,27.316,27.316,0,0,1,3.7-14.13,26.444,26.444,0,0,1,10.01-9.817,28.964,28.964,0,0,1,27.758,0,26.243,26.243,0,0,1,9.933,9.817,27.539,27.539,0,0,1,3.657,14.13,27.688,27.688,0,0,1-3.657,14.206A26.163,26.163,0,0,1,759.953,78,27.846,27.846,0,0,1,746.093,81.539Zm0-9.625a16.421,16.421,0,0,0,8.547-2.195,15.043,15.043,0,0,0,5.775-6.275,20.592,20.592,0,0,0,2.079-9.471,20.355,20.355,0,0,0-2.079-9.432,14.839,14.839,0,0,0-5.775-6.2,16.65,16.65,0,0,0-8.547-2.156,16.86,16.86,0,0,0-8.586,2.156,14.764,14.764,0,0,0-5.813,6.2,20.355,20.355,0,0,0-2.079,9.432,20.592,20.592,0,0,0,2.079,9.471,14.965,14.965,0,0,0,5.813,6.275A16.628,16.628,0,0,0,746.093,71.914Zm105.644-44.66V81h-10.78V46.042L826.558,81H818.4L803.92,46.042V81H793.14V27.254h12.243l17.094,39.963,17.094-39.963Zm64.911,0L898.476,62.289V81H887.7V62.289L869.447,27.254h12.166l11.55,24.563,11.473-24.563Z" transform="translate(403.428 2645.401)" fill="#0b0757"></path></g></svg> 