<svg width="15" height="8" viewBox="0 0 15 8" fill="none" xmlns="http://www.w3.org/2000/svg">
<path d="M12.3795 0.279478L7.00705 5.64236L1.63455 0.279479C1.45448 0.100474 1.21089 5.59649e-07 0.956983 5.70747e-07C0.703076 5.81846e-07 0.459487 0.100474 0.279414 0.279479C0.10041 0.459551 -6.42151e-05 0.703141 -6.4204e-05 0.957047C-6.41929e-05 1.21095 0.10041 1.45455 0.279414 1.63462L6.39195 7.74715C6.55569 7.90914 6.77672 8 7.00705 8C7.23738 8 7.45841 7.90914 7.62215 7.74715L13.7347 1.63462C13.9137 1.45455 14.0142 1.21095 14.0142 0.957047C14.0142 0.70314 13.9137 0.45955 13.7347 0.279478C13.5546 0.100474 13.311 3.07352e-08 13.0571 4.18338e-08C12.8032 5.29324e-08 12.5596 0.100474 12.3795 0.279478Z" fill="#141413"/>
</svg>
