<?xml version="1.0" encoding="UTF-8"?> <svg xmlns="http://www.w3.org/2000/svg" xmlns:xlink="http://www.w3.org/1999/xlink" width="193" height="195" viewBox="0 0 193 195"><defs><filter id="Ellipse_2510" x="0" y="0" width="193" height="195"><feOffset dy="12"></feOffset><feGaussianBlur stdDeviation="15" result="blur"></feGaussianBlur><feFlood flood-opacity="0.161"></feFlood><feComposite operator="in" in2="blur"></feComposite><feComposite in="SourceGraphic"></feComposite></filter><linearGradient id="linear-gradient" x1="0.79" y1="1.148" x2="0.201" y2="-0.161" gradientUnits="objectBoundingBox"><stop offset="0" stop-color="#10aae2"></stop><stop offset="1" stop-color="#01c74d"></stop></linearGradient></defs><g id="play_button" data-name="play button" transform="translate(60.457 48.255)"><g id="Group_216289" data-name="Group 216289" transform="translate(-14.784 -15.189)"><g transform="matrix(1, 0, 0, 1, -45.67, -33.07)" filter="url(#Ellipse_2510)"><ellipse id="Ellipse_2510-2" data-name="Ellipse 2510" cx="51.5" cy="52.5" rx="51.5" ry="52.5" transform="translate(45 33)" fill="#fff" opacity="0.92"></ellipse></g><g id="Group_216288" data-name="Group 216288" transform="translate(13.593 13.796)"><ellipse id="Ellipse_2511" data-name="Ellipse 2511" cx="37.5" cy="38.5" rx="37.5" ry="38.5" transform="translate(-0.266 0.14)" stroke="rgba(0,0,0,0)" stroke-width="1" fill="url(#linear-gradient)"></ellipse><path id="Polygon_5" data-name="Polygon 5" d="M11.278,2.914a2,2,0,0,1,3.444,0l9.5,16.069A2,2,0,0,1,22.5,22H3.5a2,2,0,0,1-1.722-3.017Z" transform="translate(52.734 26.14) rotate(90)" fill="#fff"></path></g></g></g></svg> 